<svg width="25" height="25" viewBox="0 0 25 25" fill="none" xmlns="http://www.w3.org/2000/svg">
<g clip-path="url(#clip0_1_210)">
<path fill-rule="evenodd" clip-rule="evenodd" d="M4.16665 16.2352L8.33331 12.0685L11.9791 15.7144L18.75 8.94352L20.8333 11.0269V4.16666H4.16665V16.2352ZM4.16665 19.1815V20.8333H14.1518L8.33331 15.0148L4.16665 19.1815ZM17.0981 20.8333H20.8333V13.9731L18.75 11.8898L13.4523 17.1875L17.0981 20.8333ZM4.16665 2.08333H20.8333C21.9839 2.08333 22.9166 3.01607 22.9166 4.16666V20.8333C22.9166 21.9839 21.9839 22.9167 20.8333 22.9167H4.16665C3.01605 22.9167 2.08331 21.9839 2.08331 20.8333V4.16666C2.08331 3.01607 3.01605 2.08333 4.16665 2.08333ZM11.4583 5.20833C13.1842 5.20833 14.5833 6.60744 14.5833 8.33333C14.5833 10.0592 13.1842 11.4583 11.4583 11.4583C9.73242 11.4583 8.33331 10.0592 8.33331 8.33333C8.33331 6.60744 9.73242 5.20833 11.4583 5.20833ZM11.4583 7.29166C10.883 7.29166 10.4166 7.75803 10.4166 8.33333C10.4166 8.90863 10.883 9.375 11.4583 9.375C12.0336 9.375 12.5 8.90863 12.5 8.33333C12.5 7.75803 12.0336 7.29166 11.4583 7.29166Z" fill="#97AACD"/>
</g>
<defs>
<clipPath id="clip0_1_210">
<rect width="25" height="25" fill="white"/>
</clipPath>
</defs>
</svg>
